<?xml version="1.0" encoding="UTF-8" standalone="no"?>
<!-- Created with Inkscape (http://www.inkscape.org/) -->

<svg
   width="64pt"
   height="64pt"
   viewBox="0 0 22.577778 22.577778"
   version="1.1"
   id="svg831"
   inkscape:version="1.1.2 (b8e25be833, 2022-02-05)"
   sodipodi:docname="Export - Unblash - 64px.svg.2022_11_25_22_15_20.0.svg"
   inkscape:export-filename="E:\Icon Design\TR Icon Design Project\Carlos - Icon Design Project\November\Asli Siap\Flat\02 - Construction Building.png"
   inkscape:export-xdpi="576"
   inkscape:export-ydpi="576"
   xmlns:inkscape="http://www.inkscape.org/namespaces/inkscape"
   xmlns:sodipodi="http://sodipodi.sourceforge.net/DTD/sodipodi-0.dtd"
   xmlns="http://www.w3.org/2000/svg"
   xmlns:svg="http://www.w3.org/2000/svg"
   xmlns:rdf="http://www.w3.org/1999/02/22-rdf-syntax-ns#"
   xmlns:cc="http://creativecommons.org/ns#"
   xmlns:dc="http://purl.org/dc/elements/1.1/">
  <defs
     id="defs825">
    <pattern
       id="EMFhbasepattern"
       patternUnits="userSpaceOnUse"
       width="6"
       height="6"
       x="0"
       y="0" />
    <pattern
       id="EMFhbasepattern-9"
       patternUnits="userSpaceOnUse"
       width="6"
       height="6"
       x="0"
       y="0" />
    <pattern
       id="EMFhbasepattern-0"
       patternUnits="userSpaceOnUse"
       width="6"
       height="6"
       x="0"
       y="0" />
    <pattern
       id="EMFhbasepattern-7"
       patternUnits="userSpaceOnUse"
       width="6"
       height="6"
       x="0"
       y="0" />
    <pattern
       id="EMFhbasepattern-2"
       patternUnits="userSpaceOnUse"
       width="6"
       height="6"
       x="0"
       y="0" />
    <pattern
       id="EMFhbasepattern-98"
       patternUnits="userSpaceOnUse"
       width="6"
       height="6"
       x="0"
       y="0" />
    <pattern
       id="EMFhbasepattern-6"
       patternUnits="userSpaceOnUse"
       width="6"
       height="6"
       x="0"
       y="0" />
    <pattern
       id="EMFhbasepattern-01"
       patternUnits="userSpaceOnUse"
       width="6"
       height="6"
       x="0"
       y="0" />
    <pattern
       id="EMFhbasepattern-07"
       patternUnits="userSpaceOnUse"
       width="6"
       height="6"
       x="0"
       y="0" />
    <pattern
       id="EMFhbasepattern-8"
       patternUnits="userSpaceOnUse"
       width="6"
       height="6"
       x="0"
       y="0" />
    <pattern
       id="EMFhbasepattern-4"
       patternUnits="userSpaceOnUse"
       width="6"
       height="6"
       x="0"
       y="0" />
    <pattern
       id="EMFhbasepattern-40"
       patternUnits="userSpaceOnUse"
       width="6"
       height="6"
       x="0"
       y="0" />
    <pattern
       id="EMFhbasepattern-08"
       patternUnits="userSpaceOnUse"
       width="6"
       height="6"
       x="0"
       y="0" />
    <pattern
       id="EMFhbasepattern-04"
       patternUnits="userSpaceOnUse"
       width="6"
       height="6"
       x="0"
       y="0" />
    <pattern
       id="EMFhbasepattern-014"
       patternUnits="userSpaceOnUse"
       width="6"
       height="6"
       x="0"
       y="0" />
    <pattern
       id="EMFhbasepattern-27"
       patternUnits="userSpaceOnUse"
       width="6"
       height="6"
       x="0"
       y="0" />
    <pattern
       id="EMFhbasepattern-09"
       patternUnits="userSpaceOnUse"
       width="6"
       height="6"
       x="0"
       y="0" />
    <pattern
       id="EMFhbasepattern-5"
       patternUnits="userSpaceOnUse"
       width="6"
       height="6"
       x="0"
       y="0" />
    <pattern
       id="EMFhbasepattern-018"
       patternUnits="userSpaceOnUse"
       width="6"
       height="6"
       x="0"
       y="0" />
    <pattern
       id="EMFhbasepattern-3"
       patternUnits="userSpaceOnUse"
       width="6"
       height="6"
       x="0"
       y="0" />
  </defs>
  <sodipodi:namedview
     id="base"
     pagecolor="#ffffff"
     bordercolor="#666666"
     borderopacity="1.0"
     inkscape:pageopacity="0.0"
     inkscape:pageshadow="2"
     inkscape:zoom="5.3085938"
     inkscape:cx="42.666667"
     inkscape:cy="42.57248"
     inkscape:document-units="pt"
     inkscape:current-layer="layer1"
     showgrid="false"
     units="pt"
     inkscape:window-width="958"
     inkscape:window-height="1041"
     inkscape:window-x="-7"
     inkscape:window-y="0"
     inkscape:window-maximized="0"
     inkscape:pagecheckerboard="true"
     inkscape:showpageshadow="false"
     inkscape:object-paths="true"
     inkscape:snap-intersection-paths="true"
     inkscape:snap-smooth-nodes="true"
     inkscape:snap-midpoints="true"
     showguides="true"
     inkscape:snap-bbox="true"
     inkscape:bbox-nodes="true"
     inkscape:snap-nodes="false"
     inkscape:snap-global="true"
     inkscape:snap-others="false">
    <inkscape:grid
       type="xygrid"
       id="grid1378" />
    <sodipodi:guide
       position="0.97013831,21.607643"
       orientation="78.000048,0"
       id="guide1380"
       inkscape:locked="false" />
    <sodipodi:guide
       position="0.97013831,0.97013129"
       orientation="0,78.000005"
       id="guide1382"
       inkscape:locked="false" />
    <sodipodi:guide
       position="21.607639,0.97013129"
       orientation="-78.000048,0"
       id="guide1384"
       inkscape:locked="false" />
    <sodipodi:guide
       position="21.607639,21.607643"
       orientation="0,-78.000005"
       id="guide1386"
       inkscape:locked="false" />
  </sodipodi:namedview>
  <metadata
     id="metadata828">
    <rdf:RDF>
      <cc:Work
         rdf:about="">
        <dc:format>image/svg+xml</dc:format>
        <dc:type
           rdf:resource="http://purl.org/dc/dcmitype/StillImage" />
      </cc:Work>
    </rdf:RDF>
  </metadata>
  <g
     inkscape:label="Icon"
     inkscape:groupmode="layer"
     id="layer1"
     transform="translate(0,-274.42223)">
    <g
       id="g188373"
       style="display:inline;stroke-width:0.794877"
       transform="matrix(1.2580566,0,0,1.2580566,0.63683531,-195.35672)">
      <path
         style="color:#000000;fill:#fec872;stroke-width:0.794877;stroke-linecap:round;stroke-linejoin:round;-inkscape-stroke:none"
         d="m 2.9101594,390.5918 h 7.6738276 c 0.146173,-5.2e-4 0.264236,-0.11946 0.263672,-0.26563 v -2.11523 c 5.64e-4,-0.14617 -0.117499,-0.26511 -0.263672,-0.26563 H 3.0034343 l -0.089144,0.1509 z"
         id="path149324"
         sodipodi:nodetypes="cccccccc" />
      <path
         id="path213614"
         style="color:#000000;fill:#fca311;fill-opacity:1;stroke-width:3.00426;stroke-linecap:round;stroke-linejoin:round;-inkscape-stroke:none"
         d="M 40.001953,407.73047 H 11.375 l -0.314453,0.47656 -0.0625,1.52344 h 29.003906 z"
         transform="matrix(0.26458334,0,0,0.26458334,0,280.06666)"
         sodipodi:nodetypes="cccccc" />
      <path
         style="color:#000000;fill:#dc1c4b;stroke-width:0.794877;stroke-linecap:round;stroke-linejoin:round;-inkscape-stroke:none"
         d="m 10.318359,390.5918 h 1.587891 c 0.435245,0 0.792969,-0.35968 0.792969,-0.79493 v -1.05859 c 0,-0.43524 -0.357724,-0.79297 -0.792969,-0.79297 h -1.322266 c -0.146936,-5.6e-4 -0.266193,0.11869 -0.265625,0.26563 z"
         id="path149340"
         sodipodi:nodetypes="cssssccc" />
      <path
         style="color:#000000;fill:#fca311;fill-opacity:1;stroke-width:0.794877;stroke-linecap:round;stroke-linejoin:round;-inkscape-stroke:none"
         d="m 5.5566406,389.00391 a 0.2645835,0.2645835 0 0 0 -0.265625,0.26367 0.2645835,0.2645835 0 0 0 0.265625,0.26562 h 2.9101563 a 0.2645835,0.2645835 0 0 0 0.2636719,-0.26562 0.2645835,0.2645835 0 0 0 -0.2636719,-0.26367 z"
         id="path149516" />
      <path
         style="color:#000000;fill:#fca311;fill-opacity:1;stroke-width:0.794877;stroke-linecap:round;stroke-linejoin:round;-inkscape-stroke:none"
         d="m 4.2324219,389.00391 a 0.2645835,0.2645835 0 0 0 -0.2636719,0.26367 0.2645835,0.2645835 0 0 0 0.2636719,0.26562 h 0.265625 a 0.2645835,0.2645835 0 0 0 0.2636718,-0.26562 0.2645835,0.2645835 0 0 0 -0.2636718,-0.26367 z"
         id="path5110" />
      <path
         style="color:#000000;fill:#000000;stroke-width:0.794877;stroke-linecap:round;stroke-linejoin:round;-inkscape-stroke:none"
         d="m 3.9726563,378.08984 a 0.2645835,0.2645835 0 0 0 -0.265625,0.26368 l -0.00586,7.01171 a 0.2645835,0.2645835 0 0 0 0.2636719,0.26563 0.2645835,0.2645835 0 0 0 0.2656249,-0.26563 l 0.00586,-7.01171 a 0.2645835,0.2645835 0 0 0 -0.2636718,-0.26368 z"
         id="path5116" />
      <path
         style="color:#000000;fill:#5aabdd;stroke-width:0.794877;stroke-linecap:round;stroke-linejoin:round;-inkscape-stroke:none"
         d="m 2.2617188,376.94141 c 0.8043033,0 1.4453133,0.63195 1.4453125,1.41211 a 0.26460996,0.26460996 0 0 0 0.265625,0.26562 h 9.2070317 l 1.449218,1.53125 a 0.26460996,0.26460996 0 0 0 0.279297,0.0664 l 1.230469,-0.42774 v 7.36328 c 1.8e-5,0.78298 -0.629098,1.41211 -1.412109,1.41211 -0.783011,0 -1.412111,-0.62912 -1.41211,-1.41211 a 0.26460996,0.26460996 0 0 0 -0.263672,-0.26562 H 2.2460938 c -0.7850311,0 -1.42968484,-0.62386 -1.42968755,-1.4668 v -7.0664 c 2.65e-6,-0.78016 0.64100925,-1.41211 1.44531255,-1.41211 z"
         id="path149614" />
      <path
         id="path187440"
         style="color:#000000;fill:#3485d0;fill-opacity:1;stroke-width:3.00426;stroke-linecap:round;stroke-linejoin:round;-inkscape-stroke:none"
         d="m 40.181641,372.48242 14.695312,14.69727 c 1.691636,1.69163 4.066967,2.16861 6.119141,1.59765 V 376.9043 l -4.650391,1.61523 a 1.0001006,1.0001006 0 0 1 -1.054687,-0.25 L 49.8125,372.48242 Z"
         transform="matrix(0.26458334,0,0,0.26458334,0,280.06666)" />
      <path
         style="color:#000000;fill:#a7e3fa;stroke-width:0.794877;stroke-linecap:round;stroke-linejoin:round;-inkscape-stroke:none"
         d="m 5.0273437,378.94922 a 0.2645835,0.2645835 0 0 0 -0.265625,0.26562 v 7.14258 a 0.2645835,0.2645835 0 0 0 0.265625,0.26563 0.2645835,0.2645835 0 0 0 0.2636719,-0.26563 v -7.14258 a 0.2645835,0.2645835 0 0 0 -0.2636719,-0.26562 z"
         id="path5128" />
      <path
         style="color:#000000;fill:#a7e3fa;stroke-width:0.794877;stroke-linecap:round;stroke-linejoin:round;-inkscape-stroke:none"
         d="m 4.7617187,385.82812 a 0.2645835,0.2645835 0 0 0 -0.2636718,0.26563 0.2645835,0.2645835 0 0 0 0.2636718,0.26367 H 15.611328 a 0.2645835,0.2645835 0 0 0 0.263672,-0.26367 0.2645835,0.2645835 0 0 0 -0.263672,-0.26563 z"
         id="path5130" />
      <path
         style="color:#000000;fill:#a7e3fa;stroke-width:0.794877;stroke-linecap:round;stroke-linejoin:round;-inkscape-stroke:none"
         d="m 4.7617187,379.21484 a 0.2645835,0.2645835 0 0 0 -0.2636718,0.26368 0.2645835,0.2645835 0 0 0 0.2636718,0.26562 h 0.5292969 a 0.2645835,0.2645835 0 0 0 0.265625,-0.26562 0.2645835,0.2645835 0 0 0 -0.265625,-0.26368 z"
         id="path5132" />
      <path
         style="color:#000000;fill:#a7e3fa;stroke-width:0.794877;stroke-linecap:round;stroke-linejoin:round;-inkscape-stroke:none"
         d="m 15.345703,385.56445 a 0.2645835,0.2645835 0 0 0 -0.263672,0.26367 v 0.5293 a 0.2645835,0.2645835 0 0 0 0.263672,0.26563 0.2645835,0.2645835 0 0 0 0.265625,-0.26563 v -0.5293 a 0.2645835,0.2645835 0 0 0 -0.265625,-0.26367 z"
         id="path5134" />
      <path
         style="color:#000000;fill:#a7e3fa;stroke-width:0.794877;stroke-linecap:round;stroke-linejoin:round;-inkscape-stroke:none"
         d="m 8.7304688,381.5957 a 0.2645835,0.2645835 0 0 0 -0.2636719,0.26367 v 1.0586 a 0.2645835,0.2645835 0 0 0 0.2636719,0.26562 0.2645835,0.2645835 0 0 0 0.265625,-0.26562 v -1.0586 a 0.2645835,0.2645835 0 0 0 -0.265625,-0.26367 z"
         id="path149530" />
      <path
         style="color:#000000;fill:#a7e3fa;stroke-width:0.794877;stroke-linecap:round;stroke-linejoin:round;-inkscape-stroke:none"
         d="m 6.3496094,379.47852 c -0.289119,0 -0.5292931,0.24018 -0.5292969,0.52929 v 4.76172 c -7.3e-6,0.28912 0.2401778,0.5293 0.5292969,0.5293 h 2.6464844 a 0.2645835,0.2645835 0 0 0 0.2636718,-0.26367 0.2645835,0.2645835 0 0 0 -0.2636718,-0.26563 H 6.3496094 v -4.76172 h 2.1171875 v 0.79297 a 0.2645835,0.2645835 0 0 0 0.2636719,0.26563 0.2645835,0.2645835 0 0 0 0.265625,-0.26563 v -1.05664 a 0.26460996,0.26460996 0 0 0 -0.265625,-0.26562 z"
         id="path5136" />
      <path
         id="path5138"
         style="color:#000000;fill:#a7e3fa;stroke-width:3.00426;stroke-linecap:round;stroke-linejoin:round;-inkscape-stroke:none"
         d="M 32,375.73047 A 1.0000006,1.0000006 0 0 0 30.996094,376.73438 1.0000006,1.0000006 0 0 0 32,377.73047 h 4.001953 v 8.00195 c 0,1.09274 0.907265,2 2,2 h 7.994141 A 1.0001006,1.0001006 0 0 0 47,386.72852 v -8.99805 c 0,-1.0927 -0.907267,-2 -2,-2 h -8.001953 z m 6.001953,2 H 45 v 8.00195 h -6.998047 z"
         transform="matrix(0.26458334,0,0,0.26458334,0,280.06666)" />
      <path
         style="color:#000000;fill:#a7e3fa;stroke-width:0.794877;stroke-linecap:round;stroke-linejoin:round;-inkscape-stroke:none"
         d="m 10.847656,379.47852 a 0.2645835,0.2645835 0 0 0 -0.263672,0.26562 v 1.05664 c -8e-6,0.28912 0.240178,0.5293 0.529297,0.5293 h 1.056641 a 0.2645835,0.2645835 0 0 0 0.265625,-0.26367 0.2645835,0.2645835 0 0 0 -0.265625,-0.26563 h -1.056641 v -1.05664 a 0.2645835,0.2645835 0 0 0 -0.265625,-0.26562 z"
         id="path5140" />
      <path
         style="color:#000000;fill:#a7e3fa;stroke-width:0.794877;stroke-linecap:round;stroke-linejoin:round;-inkscape-stroke:none"
         d="m 6.0859375,382.125 a 0.2645835,0.2645835 0 0 0 -0.265625,0.26367 0.2645835,0.2645835 0 0 0 0.265625,0.26563 h 2.6445313 a 0.2645835,0.2645835 0 0 0 0.265625,-0.26563 0.2645835,0.2645835 0 0 0 -0.265625,-0.26367 z"
         id="path5142" />
      <path
         style="color:#000000;fill:#a7e3fa;stroke-width:0.794877;stroke-linecap:round;stroke-linejoin:round;-inkscape-stroke:none"
         d="m 8.9960938,384.76953 a 0.2645835,0.2645835 0 0 0 -0.265625,0.26563 0.2645835,0.2645835 0 0 0 0.265625,0.26367 h 3.1738282 a 0.2645835,0.2645835 0 0 0 0.265625,-0.26367 0.2645835,0.2645835 0 0 0 -0.265625,-0.26563 z"
         id="path149542" />
      <path
         style="color:#000000;fill:#a7e3fa;stroke-width:0.794877;stroke-linecap:round;stroke-linejoin:round;-inkscape-stroke:none"
         d="m 12.169922,382.125 a 0.2645835,0.2645835 0 0 0 -0.263672,0.26367 0.2645835,0.2645835 0 0 0 0.263672,0.26563 h 1.324219 v 2.11523 h -0.265625 a 0.2645835,0.2645835 0 0 0 -0.263672,0.26563 0.2645835,0.2645835 0 0 0 0.263672,0.26367 h 0.265625 c 0.289119,0 0.529296,-0.24018 0.529297,-0.5293 v -2.11523 c -1e-6,-0.28912 -0.240178,-0.5293 -0.529297,-0.5293 z"
         id="path5144" />
      <path
         style="color:#000000;fill:#3485d0;stroke-width:0.794877;stroke-linecap:round;stroke-linejoin:round;-inkscape-stroke:none"
         d="m 1.5273437,385.16797 a 0.2645835,0.2645835 0 0 0 -0.2363281,0.29101 c 0.045237,0.45238 0.4504344,0.89844 1.0898438,0.89844 h 0.7949219 a 0.2645835,0.2645835 0 0 0 0.2636718,-0.26367 0.2645835,0.2645835 0 0 0 -0.2636718,-0.26563 H 2.3808594 c -0.4189228,0 -0.5415913,-0.21278 -0.5625,-0.42187 a 0.2645835,0.2645835 0 0 0 -0.2910157,-0.23828 z"
         id="path5146" />
      <path
         style="color:#000000;fill:#87d1ee;stroke-width:0.794877;stroke-linecap:round;stroke-linejoin:round;-inkscape-stroke:none"
         d="m 2.2617188,376.41211 c -1.0846822,0 -1.97460478,0.86956 -1.97460938,1.94141 v 7.0664 c 4.5e-6,1.11838 0.88850808,1.9961 1.95898438,1.9961 H 12.896484 c 0.145981,0.92633 0.863881,1.67773 1.830079,1.67773 1.068996,0 1.94143,-0.87243 1.941406,-1.94141 v -7.73437 a 0.2645835,0.2645835 0 0 0 -0.263672,-0.26367 0.2645835,0.2645835 0 0 0 -0.265625,0.26367 v 7.73437 c 1.8e-5,0.78298 -0.629098,1.41211 -1.412109,1.41211 -0.783011,0 -1.412111,-0.62912 -1.41211,-1.41211 a 0.26460996,0.26460996 0 0 0 -0.263672,-0.26562 H 2.2460938 c -0.7850311,0 -1.42968408,-0.62386 -1.42968758,-1.4668 v -7.0664 c 3.4e-6,-0.78016 0.64100928,-1.41211 1.44531258,-1.41211 0.8043033,0 1.4453133,0.63195 1.4453125,1.41211 a 0.26460996,0.26460996 0 0 0 0.265625,0.26562 h 9.3203127 a 0.2645835,0.2645835 0 0 0 0.263672,-0.26562 0.2645835,0.2645835 0 0 0 -0.263672,-0.26368 H 4.125 c -0.1488552,-0.92806 -0.8828634,-1.67773 -1.8632812,-1.67773 z"
         id="path287628" />
      <path
         id="path185126"
         style="fill:#5ec1e8;fill-opacity:1;stroke-width:3.00426;stroke-linecap:round;stroke-linejoin:round"
         d="m 38.179688,370.48047 2.001953,2.00195 h 10.058593 a 1.0000006,1.0000006 0 0 0 0.998047,-1.0039 1.0000006,1.0000006 0 0 0 -0.998047,-0.99805 z M 62,374.50391 a 1.0000006,1.0000006 0 0 0 -1.003906,0.99804 v 13.27539 c 0.23885,-0.0664 0.472661,-0.14558 0.701172,-0.24023 0.459017,-0.19013 0.895679,-0.4378 1.298828,-0.73438 V 375.50195 A 1.0000006,1.0000006 0 0 0 62,374.50391 Z"
         transform="matrix(0.26458334,0,0,0.26458334,0,280.06666)" />
      <path
         id="path149408"
         style="color:#000000;fill:#fec872;stroke-width:3.00426;stroke-linecap:round;stroke-linejoin:round;-inkscape-stroke:none"
         d="m 35.978516,355.73242 c -1.603436,-4e-5 -2.890119,1.00691 -3.417969,2.28125 -0.52785,1.27431 -0.329116,2.88966 0.804687,4.02344 l 23.328125,23.32617 c 1.133794,1.13378 2.749132,1.33254 4.023438,0.80469 1.274305,-0.52781 2.279285,-1.80673 2.279297,-3.41016 v -23.42383 c 7e-6,-1.97767 -1.62388,-3.60156 -3.601563,-3.60156 z m 11.515625,8.50391 h 6.998047 v 6.99805 z"
         transform="matrix(0.26458334,0,0,0.26458334,0,280.06666)" />
      <path
         id="path203347"
         style="color:#000000;fill:#fca311;fill-opacity:1;stroke-width:3.00426;stroke-linecap:round;stroke-linejoin:round;-inkscape-stroke:none"
         d="m 35.978516,355.73242 c -1.603436,-4e-5 -2.890119,1.00691 -3.417969,2.28125 0.431462,-0.17971 0.908304,-0.28126 1.417969,-0.28125 h 23.416015 c 1.977683,0 3.60157,1.62393 3.601563,3.60156 v 23.42383 c -4e-6,0.50745 -0.101303,0.98124 -0.279297,1.41016 1.274305,-0.52781 2.279285,-1.80673 2.279297,-3.41016 v -23.42383 c 7e-6,-1.97767 -1.62388,-3.60156 -3.601563,-3.60156 z"
         transform="matrix(0.26458334,0,0,0.26458334,0,280.06666)"
         sodipodi:nodetypes="cccscccccsc" />
      <path
         id="path5154"
         style="color:#000000;fill:#3a4d5c;stroke-width:3.00426;stroke-linecap:round;stroke-linejoin:round;-inkscape-stroke:none"
         d="m 36.001953,355.73242 v 2.30274 a 0.99999871,0.99999871 0 0 0 0.996094,0.99609 0.99999871,0.99999871 0 0 0 1.003906,-0.99609 v -2.30274 z m 4,0 v 2.30274 a 0.99999871,0.99999871 0 0 0 0.996094,0.99609 0.99999871,0.99999871 0 0 0 1.005859,-0.99609 v -2.30274 z m 4.001953,0 v 3.60156 A 0.99999871,0.99999871 0 0 0 45,360.33203 a 0.99999871,0.99999871 0 0 0 0.996094,-0.99805 v -3.60156 z m 3.992188,0 v 2.30274 a 0.99999871,0.99999871 0 0 0 1.005859,0.99609 0.99999871,0.99999871 0 0 0 0.996094,-0.99609 v -2.30274 z m 4.001953,0 v 2.30274 a 0.99999871,0.99999871 0 0 0 1.003906,0.99609 0.99999871,0.99999871 0 0 0 0.996094,-0.99609 v -2.30274 z m 4,0 v 3.60156 a 0.99999871,0.99999871 0 0 0 1.005859,0.99805 A 0.99999871,0.99999871 0 0 0 58,359.33398 v -3.60156 z"
         transform="matrix(0.26458334,0,0,0.26458334,0,280.06666)" />
      <path
         id="path5162"
         style="color:#000000;fill:#3a4d5c;stroke-width:3.00426;stroke-linecap:round;stroke-linejoin:round;-inkscape-stroke:none"
         d="m 60.701172,360.73047 a 0.99999871,0.99999871 0 0 0 -1.003906,1.00391 0.99999871,0.99999871 0 0 0 1.003906,0.99609 h 2.294922 v -2 z m -1.306641,4 a 0.99999871,0.99999871 0 0 0 -0.996093,0.99609 0.99999871,0.99999871 0 0 0 0.996093,1.00391 h 3.601563 v -2 z m 1.306641,4.00195 a 0.99999871,0.99999871 0 0 0 -1.003906,0.9961 0.99999871,0.99999871 0 0 0 1.003906,1.0039 h 2.294922 v -2 z m 0,4 a 0.99999871,0.99999871 0 0 0 -1.003906,0.9961 0.99999871,0.99999871 0 0 0 1.003906,1.0039 h 2.294922 v -2 z m -1.306641,4.00196 a 0.99999871,0.99999871 0 0 0 -0.996093,0.99609 0.99999871,0.99999871 0 0 0 0.996093,1.00391 h 3.601563 v -2 z m 1.306641,3.99218 a 0.99999871,0.99999871 0 0 0 -1.003906,1.00391 0.99999871,0.99999871 0 0 0 1.003906,0.99805 h 2.294922 v -2.00196 z"
         transform="matrix(0.26458334,0,0,0.26458334,0,280.06666)" />
      <path
         style="color:#000000;fill:#a7e3fa;stroke-width:0.794877;stroke-linecap:round;stroke-linejoin:round;-inkscape-stroke:none"
         d="m 8.7304688,383.71289 a 0.2645835,0.2645835 0 0 0 -0.2636719,0.26367 v 1.0586 a 0.2645835,0.2645835 0 0 0 0.2636719,0.26367 0.2645835,0.2645835 0 0 0 0.265625,-0.26367 v -1.0586 a 0.2645835,0.2645835 0 0 0 -0.265625,-0.26367 z"
         id="path5181" />
      <path
         style="color:#000000;fill:#a7e3fa;stroke-width:0.794877;stroke-linecap:round;stroke-linejoin:round;-inkscape-stroke:none"
         d="m 6.0859375,383.38086 a 0.2645835,0.2645835 0 0 0 -0.265625,0.26562 0.2645835,0.2645835 0 0 0 0.265625,0.26368 h 1.0585937 v 1.125 a 0.2645835,0.2645835 0 0 0 0.2636719,0.26367 0.2645835,0.2645835 0 0 0 0.265625,-0.26367 v -1.125 c 7.9e-6,-0.28913 -0.2401778,-0.5293 -0.5292969,-0.5293 z"
         id="path5183" />
      <path
         style="color:#000000;fill:#a7e3fa;stroke-width:0.794877;stroke-linecap:round;stroke-linejoin:round;-inkscape-stroke:none"
         d="m 7.4082031,379.47852 a 0.2645835,0.2645835 0 0 0 -0.2636719,0.26562 v 1.12305 H 6.0859375 a 0.2645835,0.2645835 0 0 0 -0.265625,0.26562 0.2645835,0.2645835 0 0 0 0.265625,0.26367 h 1.0585937 c 0.2891191,0 0.5293048,-0.24017 0.5292969,-0.52929 v -1.12305 a 0.2645835,0.2645835 0 0 0 -0.265625,-0.26562 z"
         id="path5185" />
      <path
         id="path5187"
         style="color:#000000;fill:#3a4d5c;fill-opacity:1;stroke-width:3.00426;stroke-linecap:round;stroke-linejoin:round;-inkscape-stroke:none"
         d="m 34.998047,407.73047 v 10.00195 h 2 v -10.00195 z"
         transform="matrix(0.26458334,0,0,0.26458334,0,280.06666)" />
      <path
         style="color:#000000;fill:#87d1ee;stroke-width:0.794877;stroke-linecap:round;stroke-linejoin:round;-inkscape-stroke:none"
         d="m 2.2617188,376.41211 c -1.0846822,0 -1.97460572,0.86956 -1.97460942,1.94141 v 7.09375 a 0.26464844,0.26464844 0 0 0 0.52929687,0 c 9.2e-7,-0.7484 0.64101305,-1.38477 1.44531255,-1.38477 0.8042995,0 1.4453133,0.63195 1.4453125,1.41211 a 0.26464844,0.26464844 0 0 0 0.5292968,0 v -7.12109 c 1.2e-6,-1.07185 -0.8899272,-1.94141 -1.9746093,-1.94141 z"
         id="path149484" />
      <path
         id="path291412"
         style="color:#000000;fill:#87d1ee;stroke-width:0.794877;stroke-linecap:round;stroke-linejoin:round;-inkscape-stroke:none"
         d="m 13.050883,386.8865 a 0.26460996,0.26460996 0 0 0 -0.26355,0.26561 c -1e-6,1.06898 0.870421,1.94149 1.939417,1.94149 1.068996,0 1.940991,-0.87251 1.940967,-1.94149 a 0.26460996,0.26460996 0 0 0 -0.26355,-0.26561 z m 0.373104,0.52968 h 2.605526 c -0.137108,0.63697 -0.623252,1.14825 -1.302763,1.14825 -0.679582,0 -1.165719,-0.51118 -1.302763,-1.14825 z" />
      <path
         id="path151701"
         style="color:#000000;fill:#ebc8b6;stroke-width:0.794877;stroke-linecap:round;stroke-linejoin:round;-inkscape-stroke:none"
         d="m 2.4515299,388.12518 -2.02985028,0.90227 c -0.20734471,0.0938 -0.20734471,0.38831 0,0.48215 l 2.02933358,0.90226 0.6133992,-0.61494 -0.3415812,-0.34159 c -0.1025987,-0.1032 -0.1025987,-0.26989 0,-0.3731 l 0.3415812,-0.34416 z"
         sodipodi:nodetypes="ccccccccc" />
      <path
         id="path151961"
         style="color:#000000;fill:#9a605a;fill-opacity:1;stroke-width:0.794877;stroke-linecap:round;stroke-linejoin:round;-inkscape-stroke:none"
         d="m 2.4515301,388.12518 0.6128824,0.61289 -0.341581,0.34416 c -0.1025955,0.10321 -0.1025955,0.26989 0,0.3731 l 0.341581,0.34159 -0.6133991,0.61494 c 0.1442998,0.0758 0.3294834,0.17981 0.4594034,0.17981 h 0.1095539 l 0.6071982,-0.6072 c 0.1025955,-0.10321 0.1025955,-0.26989 0,-0.3731 l -0.3420978,-0.34365 0.3420978,-0.3421 c 0.1025955,-0.10321 0.1025955,-0.26989 0,-0.3731 l -0.6061644,-0.6072 c -0.2114321,0 -0.3582201,0.0786 -0.5694744,0.17986 z"
         sodipodi:nodetypes="ccccccccccccccc" />
      <path
         style="color:#000000;fill:#5aabdd;fill-opacity:1;stroke-width:0.794877;stroke-linecap:round;stroke-linejoin:round;-inkscape-stroke:none"
         d="m 1.5878906,379.21484 a 0.2645835,0.2645835 0 0 0 -0.265625,0.26368 v 3.17578 a 0.2645835,0.2645835 0 0 0 0.265625,0.26367 0.2645835,0.2645835 0 0 0 0.2636719,-0.26367 v -3.17578 a 0.2645835,0.2645835 0 0 0 -0.2636719,-0.26368 z"
         id="path149548" />
      <path
         style="color:#000000;fill:#5aabdd;fill-opacity:1;stroke-width:0.794877;stroke-linecap:round;stroke-linejoin:round;-inkscape-stroke:none"
         d="m 2.2480469,377.50195 c -0.5087515,0 -0.9257813,0.4138 -0.9257813,0.91797 a 0.2645835,0.2645835 0 0 0 0.265625,0.26563 0.2645835,0.2645835 0 0 0 0.2636719,-0.26563 c 0,-0.21819 0.1679046,-0.38867 0.3964844,-0.38867 0.1142873,0 0.2119908,0.0446 0.2832031,0.11523 a 0.2645835,0.2645835 0 0 0 0.375,-0.002 0.2645835,0.2645835 0 0 0 -0.00195,-0.375 C 2.7369497,377.60345 2.502428,377.5019 2.24805,377.5019 Z"
         id="path5148" />
      <path
         id="path201858"
         style="color:#000000;fill:#5ec1e8;fill-opacity:1;stroke-width:3.00426;stroke-linecap:round;stroke-linejoin:round;-inkscape-stroke:none"
         d="M 43.429688,375.73047 47,379.30078 v -1.57031 c 0,-1.0927 -0.907267,-2 -2,-2 z"
         transform="matrix(0.26458334,0,0,0.26458334,0,280.06666)" />
      <path
         id="path203352"
         style="color:#000000;fill:#143441;fill-opacity:1;stroke-width:3.00426;stroke-linecap:round;stroke-linejoin:round;-inkscape-stroke:none"
         d="m 36.001953,355.73242 v 2 h 2 v -2 z m 4,0 v 2 h 2.001953 v -2 z m 4.001953,0 v 2 h 1.992188 v -2 z m 3.992188,0 v 2 h 2.001953 v -2 z m 4.001953,0 v 2 h 2 v -2 z m 4,0 v 2 h 1.396484 c 0.206485,0 0.408143,0.0227 0.605469,0.0566 v -2.05664 z"
         transform="matrix(0.26458334,0,0,0.26458334,0,280.06666)" />
      <path
         id="path210363"
         style="color:#000000;fill:#143441;fill-opacity:1;stroke-width:0.794877;stroke-linecap:round;stroke-linejoin:round;-inkscape-stroke:none"
         d="m 16.123564,375.50993 c 0.0089,0.0521 0.01499,0.10523 0.01499,0.15968 v 0.36949 h 0.529167 v -0.52917 z m 0.01499,1.05834 v 0.52916 h 0.529167 v -0.52916 z m 0,1.05885 v 0.52916 h 0.529167 v -0.52916 z m 0,1.05833 v 0.52917 h 0.529167 v -0.52917 z m 0,1.05885 v 0.52917 h 0.529167 v -0.52917 z m 0,1.05626 v 0.52969 h 0.529167 v -0.52969 z" />
      <path
         id="path211969"
         style="color:#000000;fill:#b01d47;fill-opacity:1;stroke-width:3.00426;stroke-linecap:round;stroke-linejoin:round;-inkscape-stroke:none"
         d="M 38.998047,409.73047 H 43 c 1.64502,0 2.996094,1.35109 2.996094,2.99609 v 4.00196 c 0,0.30295 -0.04576,0.59617 -0.13086,0.87304 1.227925,-0.37678 2.13086,-1.52867 2.13086,-2.87304 v -4.00196 c 0,-1.645 -1.351074,-2.99609 -2.996094,-2.99609 h -6.001953 z"
         transform="matrix(0.26458334,0,0,0.26458334,0,280.06666)"
         sodipodi:nodetypes="cssscssscc" />
      <path
         id="path214947"
         style="color:#000000;fill:#143441;fill-opacity:1;stroke-width:3.00426;stroke-linecap:round;stroke-linejoin:round;-inkscape-stroke:none"
         d="m 34.998047,407.73047 v 2 h 2 v -2 z"
         transform="matrix(0.26458334,0,0,0.26458334,0,280.06666)" />
      <path
         id="path223298"
         style="color:#000000;fill:#66342d;fill-opacity:1;stroke-width:3.00426;stroke-linecap:round;stroke-linejoin:round;-inkscape-stroke:none"
         d="m 9.265625,408.41016 1.320313,1.32031 h 2.828124 l -1.996093,-2 c -0.825362,0 -1.5705101,0.38159 -2.152344,0.67969 z"
         transform="matrix(0.26458334,0,0,0.26458334,0,280.06666)"
         sodipodi:nodetypes="ccccc" />
      <path
         id="path225333"
         style="color:#000000;fill:#d0ad9b;fill-opacity:1;stroke-width:3.00426;stroke-linecap:round;stroke-linejoin:round;-inkscape-stroke:none"
         d="m 9.265625,408.41016 -7.671875,3.41015 c -0.76407341,0.34566 -0.78251037,1.41307 -0.056641,1.79492 l 9.048829,-3.88476 z"
         transform="matrix(0.26458334,0,0,0.26458334,0,280.06666)" />
    </g>
  </g>
</svg>
